<?xml version="1.0" encoding="utf-8"?>
<!-- Generator: Adobe Illustrator 22.0.1, SVG Export Plug-In . SVG Version: 6.00 Build 0)  -->
<svg version="1.1" id="Layer_1" xmlns="http://www.w3.org/2000/svg" xmlns:xlink="http://www.w3.org/1999/xlink" x="0px" y="0px"
	 viewBox="0 0 566.9 566.9" style="enable-background:new 0 0 566.9 566.9;" xml:space="preserve">
<style type="text/css">
	.st0{opacity:0.4;fill:#324C5B;}
	.st1{fill:#647286;}
	.st2{fill:#C7CAD1;}
	.st3{fill:#FFFFFF;}
	.st4{fill:none;stroke:#000000;stroke-width:5.7064;stroke-miterlimit:10;}
	.st5{fill:none;stroke:#000000;stroke-width:8.5596;stroke-miterlimit:10;}
	.st6{fill:#999999;stroke:#000000;stroke-width:0.7133;stroke-miterlimit:10;}
</style>
<g>
	<polygon class="st0" points="381.5,493.3 405.6,498.6 443.3,326.7 510.4,173.5 479.9,160.2 489.4,116.8 271.3,68.9 221.5,47.1 
		217.2,57 181.5,49.2 178.2,64.2 159.7,59.8 94,338.4 64.8,405.2 77,410.5 70,440.3 232.4,478.5 353.7,531.6 363.4,509.4 
		376.9,512.6 	"/>
	
		<rect x="90.3" y="105.9" transform="matrix(0.2144 -0.9767 0.9767 0.2144 -32.8582 486.1302)" class="st1" width="390.9" height="315.3"/>
	
		<rect x="84.4" y="121.3" transform="matrix(0.4009 -0.9161 0.9161 0.4009 -87.9195 423.5155)" class="st2" width="390.9" height="315.3"/>
	
		<rect x="65.1" y="118.2" transform="matrix(0.2294 -0.9733 0.9733 0.2294 -67.6892 466.1708)" class="st3" width="390.9" height="315.3"/>
	<g>
		<g>
			
				<rect x="164.9" y="91.2" transform="matrix(0.2294 -0.9733 0.9733 0.2294 32.9905 276.4528)" class="st4" width="52.4" height="52.4"/>
			<polyline class="st5" points="177.1,108.7 182.3,126.2 211.5,111.3 			"/>
			<g>
				
					<rect x="328" y="41.5" transform="matrix(0.2294 -0.9733 0.9733 0.2294 124.7266 424.9716)" class="st6" width="5.5" height="184.3"/>
				
					<rect x="324.2" y="57.6" transform="matrix(0.2294 -0.9733 0.9733 0.2294 106.2291 433.6378)" class="st6" width="5.5" height="184.3"/>
				
					<rect x="277.9" y="106.8" transform="matrix(0.2294 -0.9733 0.9733 0.2294 65.2824 392.6554)" class="st6" width="5.5" height="96.6"/>
			</g>
		</g>
		<g>
			
				<rect x="149.4" y="157" transform="matrix(0.2294 -0.9733 0.9733 0.2294 -43.0634 312.0862)" class="st4" width="52.4" height="52.4"/>
			<polyline class="st5" points="161.5,174.6 166.8,192.1 196,177.2 			"/>
			<g>
				
					<rect x="312.5" y="107.4" transform="matrix(0.2294 -0.9733 0.9733 0.2294 48.6732 460.6049)" class="st6" width="5.5" height="184.3"/>
				
					<rect x="308.7" y="123.4" transform="matrix(0.2294 -0.9733 0.9733 0.2294 30.1756 469.2715)" class="st6" width="5.5" height="184.3"/>
				
					<rect x="262.3" y="172.7" transform="matrix(0.2294 -0.9733 0.9733 0.2294 -10.7714 428.2887)" class="st6" width="5.5" height="96.6"/>
			</g>
		</g>
		<g>
			
				<rect x="133.8" y="222.9" transform="matrix(0.2294 -0.9733 0.9733 0.2294 -119.1153 347.7223)" class="st4" width="52.4" height="52.4"/>
			<polyline class="st5" points="146,240.4 151.3,257.9 180.5,243 			"/>
			<g>
				
					<rect x="296.9" y="173.2" transform="matrix(0.2294 -0.9733 0.9733 0.2294 -27.3809 496.2375)" class="st6" width="5.5" height="184.3"/>
				
					<rect x="293.2" y="189.3" transform="matrix(0.2294 -0.9733 0.9733 0.2294 -45.8777 504.9045)" class="st6" width="5.5" height="184.3"/>
				
					<rect x="246.8" y="238.5" transform="matrix(0.2294 -0.9733 0.9733 0.2294 -86.8245 463.9226)" class="st6" width="5.5" height="96.6"/>
			</g>
		</g>
		<g>
			
				<rect x="118.3" y="288.7" transform="matrix(0.2294 -0.9733 0.9733 0.2294 -195.1714 383.3476)" class="st4" width="52.4" height="52.4"/>
			<polyline class="st5" points="130.5,306.3 135.8,323.8 165,308.8 			"/>
			<g>
				
					<rect x="281.4" y="239.1" transform="matrix(0.2294 -0.9733 0.9733 0.2294 -103.4352 531.8698)" class="st6" width="5.5" height="184.3"/>
				
					<rect x="277.7" y="255.1" transform="matrix(0.2294 -0.9733 0.9733 0.2294 -121.9305 540.5391)" class="st6" width="5.5" height="184.3"/>
				
					<rect x="231.3" y="304.4" transform="matrix(0.2294 -0.9733 0.9733 0.2294 -162.879 499.5545)" class="st6" width="5.5" height="96.6"/>
			</g>
		</g>
		<g>
			
				<rect x="102.8" y="354.6" transform="matrix(0.2294 -0.9733 0.9733 0.2294 -271.2237 418.9904)" class="st4" width="52.4" height="52.4"/>
			<polyline class="st5" points="115,372.1 120.3,389.6 149.4,374.7 			"/>
			<g>
				
					<rect x="265.9" y="304.9" transform="matrix(0.2294 -0.9733 0.9733 0.2294 -179.4868 567.5057)" class="st6" width="5.5" height="184.3"/>
				
					<rect x="262.1" y="321" transform="matrix(0.2294 -0.9733 0.9733 0.2294 -197.9857 576.1686)" class="st6" width="5.5" height="184.3"/>
				
					<rect x="215.8" y="370.2" transform="matrix(0.2294 -0.9733 0.9733 0.2294 -238.9301 535.194)" class="st6" width="5.5" height="96.6"/>
			</g>
		</g>
	</g>
</g>
</svg>
