<?xml version="1.0" encoding="utf-8"?>
<!-- Generator: Adobe Illustrator 22.0.1, SVG Export Plug-In . SVG Version: 6.00 Build 0)  -->
<svg version="1.1" xmlns="http://www.w3.org/2000/svg" xmlns:xlink="http://www.w3.org/1999/xlink" x="0px" y="0px"
	 viewBox="0 0 464 396" style="enable-background:new 0 0 464 396;" xml:space="preserve">
<style type="text/css">
	.st0{fill:#E7AF40;}
	.st1{fill:#DD6A26;}
	.st2{fill:#F3E1AF;}
	.st3{fill:#F1EDEC;}
</style>
<g id="Background">
</g>
<g id="Objects">
	<g>
		<g>
			<g>
				<path class="st0" d="M214,147.9c0,0-25.5-48.7-88.8-53.8c0,0-16.7,79.1,56.1,97L214,147.9z"/>
				<path class="st1" d="M196.8,145.9c0,0-15.9-30.2-55.2-33.4c0,0-10.4,49.1,34.9,60.3L196.8,145.9z"/>
			</g>
			<g>
				<path class="st0" d="M260.5,147.9c0,0,25.5-48.7,88.8-53.8c0,0,16.7,79.1-56.1,97L260.5,147.9z"/>
				<path class="st1" d="M277.6,145.9c0,0,15.9-30.2,55.2-33.4c0,0,10.4,49.1-34.9,60.3L277.6,145.9z"/>
			</g>
		</g>
		<g>
			<path class="st0" d="M299.8,171.3c-19.4-40.8-62-38.8-62-38.8s-42.6-2-62,38.8c-19.4,40.8,7.1,61.2,10.7,66.3
				c0,0,3.1,25.5,29.1,35.2c0,0,9.8,7.7,22.2,7.7c12.5,0,22.2-7.7,22.2-7.7c26-9.7,29.1-35.2,29.1-35.2
				C292.7,232.5,319.2,212.1,299.8,171.3z"/>
			<g>
				<path class="st2" d="M258.5,221.1c-13.3-3.4-12.9-24.5-11.6-36.7c1.4-12.2-0.9-24.2-9.1-24.2l0,0l0,0l0,0l0,0
					c-8.2,0-10.5,11.9-9.1,24.2c1.4,12.2,1.7,33.3-11.6,36.7c-13.3,3.4-30.6,16.5-30.6,16.5s3.1,25.5,29.1,35.2
					c0,0,9.8,7.7,22.2,7.7l0,0l0,0l0,0l0,0c12.5,0,22.2-7.7,22.2-7.7c26-9.7,29.1-35.2,29.1-35.2S271.8,224.5,258.5,221.1z"/>
				<g>
					<g>
						<g>
							<path d="M289.7,211.4c0,6.6-5.4,12-12,12c-6.6,0-12-5.4-12-12c0-6.6,5.4-12,12-12C284.3,199.4,289.7,204.8,289.7,211.4z"/>
							<path class="st3" d="M277.2,205.8c0,1.7-1.4,3.1-3.1,3.1c-1.7,0-3.1-1.4-3.1-3.1c0-1.7,1.4-3.1,3.1-3.1
								C275.8,202.7,277.2,204.1,277.2,205.8z"/>
						</g>
						<g>
							<path d="M211.4,211.4c0,6.6-5.4,12-12,12c-6.6,0-12-5.4-12-12c0-6.6,5.4-12,12-12C206,199.4,211.4,204.8,211.4,211.4z"/>
							<path class="st3" d="M198.9,205.8c0,1.7-1.4,3.1-3.1,3.1c-1.7,0-3.1-1.4-3.1-3.1c0-1.7,1.4-3.1,3.1-3.1
								C197.5,202.7,198.9,204.1,198.9,205.8z"/>
						</g>
					</g>
					<path d="M253.2,243.6c-1.4-7.3-15.4-8.3-15.4-8.3s-14.1,1-15.4,8.3c-1.4,7.3,3.3,17.2,15.4,17.2
						C249.9,260.8,254.6,250.9,253.2,243.6z"/>
					<path d="M237.8,274.8c11.4,0,16.2-3.7,16.2-3.7c-9.5,1.4-16.2-5-16.2-5l0,0l0,0l0,0l0,0c0,0-6.7,6.4-16.2,5
						C221.6,271.1,226.4,274.8,237.8,274.8L237.8,274.8L237.8,274.8L237.8,274.8L237.8,274.8z"/>
				</g>
			</g>
		</g>
	</g>
</g>
</svg>
